/* XPM */
static char *_9236_413c371011ac937f1fdacf83ef488faf16d480ae55de7261c289f655a0846656[] = {
/* columns rows colors chars-per-pixel */
"64 64 11 1 ",
"  c #850009",
". c #857E00",
"X c #068500",
"o c #57901B",
"O c #6FB12E",
"+ c #87C943",
"@ c #B1E56D",
"# c #541B90",
"$ c #6F2EB1",
"% c #8543C9",
"& c #A16DE5",
/* pixels */
"                      .....................XXXXXXXXXXXXXXXXXXXXX",
"@                     ..........&..........XXXXXXXXXXXXXXXXXXXXX",
"@                     ..........&..........XXXXXXXXXXXXXXXXXXXXX",
"@                     ..........&..........XXXXXXXXXXXXXXXXXXXXX",
"@@                    .........&&&.........XXXXXXXXXXXXXXXXXXXX@",
"+@                    .........&%&.........XXXXXXXXXXXXXXXXXXXX@",
"+@                    .........%%&.........XXXXXXXXXXXXXXXXXXXX+",
"++        @           &........%%%........&XXXXXXXXXXX@XXXXXXXX+",
"++@       @           &.......&%%%&.......&XXXXXXXXXXX@XXXXXXX@+",
"++@      @@           &%......&%%%&......&&XXXXXXXXXXX@+XXXXXX@+",
"+++     @+@           %%%.....%%%%%.....&%&XXXXXXXXXXX+++XXXXX++",
"+++   +@++            .%%%&...%%%%%...%&%%.XXXXXXXXXXXX+++@XXX++",
"++O  @+++O            .$%%%%..$%%%$..&%%%$.XXXXXXXXXXXXO++++XXO+",
"++  +++++             ..%%%%&..%%%..%%%%%..XXXXXXXXXXXXX++++@XX+",
"++ ++++++             ..$%%%%%.%%%.%%%%%%..XXXXXXXXXXXXXO+++++X+",
"++ ++++O    @       & ...$$%%%.%%%.%%%%$...X&XXXXXXX@XXXXOO+++X+",
"O ++OO    @++       %&%....$%%%.$.%%$$....&%%XXXXXXX+@+XXXXO+++X",
"O+++   @@+++O       $%%&&%...%%%$%%%...&&%%%$XXXXXXXO++@@+XXX+++",
"OOOOOO++++OO         $%%%%%%%$$$$$$$$$%%%%$$XXXXXXXXXO+++++++OOO",
"oOO +++OO             ..$%%%%.$$#$$.%%%$$..XXXXXXXXXXXXXO++++XOO",
"oO++            @     .......%%$#$%%.......XXXXX@XXXXXXXXXXXX++O",
"o OO+@          @     .....&%$$.#.$$%&.....XXXXX@XXXXXXXXXX@+OOX",
"o   O++@        @     ...&$$$...#...$%%&...XXXXX@XXXXXXXX@OOOXXX",
"o              @@@    ..........#..........XXXX@@@XXXXXXXXXXXXXX",
"o              @+@    ..........#..........XXXX@+@XXXXXXXXXXXXXX",
"o              ++@    ..........#..........XXXX++@XXXXXXXXXXXXXX",
"      @        +++    ....@...........@....XXXX+++XXXXXXXX@XXXXX",
"      @       @+++@   ....@...........@....XXX@+++@XXXXXXX@XXXXX",
"      @+      @+++@   ...@@...........@+...XXX@+++@XXXXXX@@XXXXX",
"      +++     +++++   ..@+@...........+++..XXX+++++XXXXX@+@XXXXX",
"       +++@   +++++   +@++.............+++@XXX+++++XXX+@++XXXXXX",
"       O++++  O+++O  @+++O.............O++++XXO+++OXX@+++OXXXXXX",
"        ++++@  +++  +++++...............++++@XX+++XX+++++XXXXXXX",
"        O+++++ +++ ++++++...............O+++++X+++X++++++XXXXXXX",
"    @    OO+++ +++ ++++O....@.......@....OO+++X+++X++++OXXXX@XXX",
"    +@+    O+++ O ++OO....@++.......+@+....O+++XOX++OOXXXX@++XXX",
"    O++@@+   +++O+++  .@@+++O.......O++@@+.XX+++O+++XXX@@+++OXXX",
"     O+++++++OOOOOOOOO++++OO.........O+++++++OOOOOOOOO++++OOXXXX",
"&       O++++ OOoOO +++OO.......@.......O++++XOOoOOX+++OOXXXXXXX",
"&            ++OoO++  ..........@..........XX++OoO++XXXXXXXXXXXX",
"&          @+OO o OO+@..........@..........@+OOXoXOO+@XXXXXXXXXX",
"&&       @OOO   o   O++@.......@@@.......@OOOXXXoXXXO++@XXXXXXX&",
"%&              o     .........@+@.........XXXXXoXXXXXXXXXXXXXX&",
"%&              o     .........++@.........XXXXXoXXXXXXXXXXXXXX%",
"%%        &     o     @........+++........@XXXXXoXXXXX&XXXXXXXX%",
"%%&       &           @.......@+++@.......@XXXXXXXXXXX&XXXXXXX&%",
"%%&      &&           @+......@+++@......@@XXXXXXXXXXX&%XXXXXX&%",
"%%%     &%&           +++.....+++++.....@+@XXXXXXXXXXX%%%XXXXX%%",
"%%%   %&%%            .+++@...+++++...+@++.XXXXXXXXXXXX%%%&XXX%%",
"%%$  &%%%$            .O++++..O+++O..@+++O.XXXXXXXXXXXX$%%%%XX$%",
"%%  %%%%%             ..++++@..+++..+++++..XXXXXXXXXXXXX%%%%&XX%",
"%% %%%%%%             ..O+++++.+++.++++++..XXXXXXXXXXXXX$%%%%%X%",
"%% %%%%$    &       @ ...OO+++.+++.++++O...X@XXXXXXX&XXXX$$%%%X%",
"$ %%$$    &%%       +@+....O+++.O.++OO....@++XXXXXXX%&%XXXX$%%%X",
"$%%%   &&%%%$       O++@@+...+++O+++...@@+++OXXXXXXX$%%&&%XXX%%%",
"$$$$$$%%%%$$         O+++++++OOOOOOOOO++++OOXXXXXXXXX$%%%%%%%$$$",
"#$$ %%%$$             ..O++++.OOoOO.+++OO..XXXXXXXXXXXXX$%%%%X$$",
"#$%%                  .......++OoO++.......XXXXXXXXXXXXXXXXXX%%$",
"# $$%&                .....@+OO.o.OO+@.....XXXXXXXXXXXXXXXX&%$$X",
"#   $%%&              ...@OOO...o...O++@...XXXXXXXXXXXXXX&$$$XXX",
"#                     ..........o..........XXXXXXXXXXXXXXXXXXXXX",
"#                     ..........o..........XXXXXXXXXXXXXXXXXXXXX",
"#                     ..........o..........XXXXXXXXXXXXXXXXXXXXX",
"                      .....................XXXXXXXXXXXXXXXXXXXXX"
};