/* XPM */
static char *a94b7c3db4bc4d20f80b3f00c1285a616mQcowRnK6uvRBJo[] = {
/* columns rows colors chars-per-pixel */
"64 64 5 1 ",
"  c black",
". c #B71C1C",
"X c #FF9800",
"o c #FFC107",
"O c #9C27B0",
/* pixels */
"                                                                ",
"                        OOOOOOOOOOOOOOOO                        ",
"                    OOOOOOOOOOOOOOOOOOOOOOOO                    ",
"                  OOOOOOOOOOOOOOOOOOOOOOOOOOOO                  ",
"                OOOOOOOOOOOOOOOOOOOOOOOOOOOOOOOO                ",
"              OOOOOOOOOOOOOOOOOOOOOOOOOOOOOOOOOOOO              ",
"             OOOOOOOOOOOOOOOOOOOOOOOOOOOOOOOOOOOOOO             ",
"            OOOOOOOOOOOOOOOOO OOOO OOOOOOOOOOOOOOOOO            ",
"          OOOOOOOOOOOOOOO     OOOO     OOOOOOOOOOOOOOO          ",
"         OOOOOOOOOOOOOO      OOOOOO      OOOOOOOOOOOOOO         ",
"        OOOOOOOOOOOOO        OOOOOO        OOOOOOOOOOOOO        ",
"        OOOOOOOOOOO         OOOOOOOO         OOOOOOOOOOO        ",
"       OOOOOOOOOOO          OOOOOOOO          OOOOOOOOOOO       ",
"      OOOOOOOOOOO           OOOOOOOO           OOOOOOOOOOO      ",
"     OOOOOOOOOO            OOOOOOOOOO            OOOOOOOOOO     ",
"     OOOOOOOOO             OOOOOOOOOO             OOOOOOOOO     ",
"    OOOOOOOOOO             OOOOOOOOOO             OOOOOOOOOO    ",
"    OOOOOOOOO             OOOOO  OOOOO             OOOOOOOOO    ",
"   OOOOOOOOO              OOOOO  OOOOO              OOOOOOOOO   ",
"   OOOOOOOO              OOOOOO  OOOOOO              OOOOOOOO   ",
"  OOOOOOOOO              OOOOO    OOOOO              OOOOOOOOO  ",
"  OOOOOOOO               OOOOO    OOOOO               OOOOOOOO  ",
"  OOOOOOOO              OOOOO      OOOOO              OOOOOOOO  ",
"  OOOOOOOOOOOOOOOOOOOOOOOOOOOOOOOOOOOOOOOOOOOOOOOOOOOOOOOOOOOO  ",
" OOOOOOOOOOOOOOOOOOOOOOOOOOOOOOOOOOOOOOOOOOOOOOOOOOOOOOOOOOOOOO ",
" OOOOOOOOOOOOOOOOOOOOOOOOOOOOO    OOOOOOOOOOOOOOOOOOOOOOOOOOOOO ",
" OOOOOOOOOOOOOOOOOOOOOOOOOOOO  oo  OOOOOOOOOOOOOOOOOOOOOOOOOOOO ",
" OOOOOOOOOOOOOOOO     OOOOO   .oo.   OOOOO     OOOOOOOOOOOOOOOO ",
" OOOOOOO OOOOOOOOOO   OOOOO  .XooX.  OOOOO   OOOOOOOOOO OOOOOOO ",
" OOOOOO    OOOOOOOOO  OOO   ..XooX..   OOO  OOOOOOOOO    OOOOOO ",
" OOOOOO     OOOOOOOOOOOOO ...XooooX... OOOOOOOOOOOOO     OOOOOO ",
" OOOOOO       OOOOOOOOOOO ...XooooX... OOOOOOOOOOO       OOOOOO ",
" OOOOOO         OOOOOOOOO ....XooX.... OOOOOOOOO         OOOOOO ",
" OOOOOO          OOOOOOOO   ..XooX..   OOOOOOOO          OOOOOO ",
" OOOOOO            OOOOOOOO   .oo.   OOOOOOOO            OOOOOO ",
" OOOOOOO           OOOOOOOOOO  oo  OOOOOOOOOO           OOOOOOO ",
" OOOOOOO           OOOOOOOOOOO    OOOOOOOOOOO           OOOOOOO ",
" OOOOOOO          OOOOOOOOOOOOOOOOOOOOOOOOOOOO          OOOOOOO ",
" OOOOOOO          OOOOO   OOOOOOOOOOOO   OOOOO          OOOOOOO ",
" OOOOOOOO         OOOOO    OOOOOOOOOO    OOOOO         OOOOOOOO ",
"  OOOOOOO        OOOOO   OOOOOOOOOOOOOO   OOOOO        OOOOOOO  ",
"  OOOOOOOO       OOOOO  OOOOOOOOOOOOOOOO  OOOOO       OOOOOOOO  ",
"  OOOOOOOO       OOOOOOOOOOOOOOOOOOOOOOOOOOOOOO       OOOOOOOO  ",
"  OOOOOOOOO     OOOOOOOOOOOOOO    OOOOOOOOOOOOOO     OOOOOOOOO  ",
"   OOOOOOOO     OOOOOOOOOOOO        OOOOOOOOOOOO     OOOOOOOO   ",
"   OOOOOOOOO   OOOOOOOOOOOO          OOOOOOOOOOOO   OOOOOOOOO   ",
"    OOOOOOOOO  OOOOOOOOOO              OOOOOOOOOO  OOOOOOOOO    ",
"    OOOOOOOOOOOOOOOOOOO                  OOOOOOOOOOOOOOOOOOO    ",
"     OOOOOOOOOOOOOOOOO                    OOOOOOOOOOOOOOOOO     ",
"     OOOOOOOOOOOOOOO                        OOOOOOOOOOOOOOO     ",
"      OOOOOOOOOOOO                            OOOOOOOOOOOO      ",
"       OOOOOOOOOOO                            OOOOOOOOOOO       ",
"        OOOOOOOOOOO                          OOOOOOOOOOO        ",
"        OOOOOOOOOOOOO                      OOOOOOOOOOOOO        ",
"         OOOOOOOOOOOOOO                  OOOOOOOOOOOOOO         ",
"          OOOOOOOOOOOOOOO              OOOOOOOOOOOOOOO          ",
"            OOOOOOOOOOOOOOOOO      OOOOOOOOOOOOOOOOO            ",
"             OOOOOOOOOOOOOOOOOOOOOOOOOOOOOOOOOOOOOO             ",
"              OOOOOOOOOOOOOOOOOOOOOOOOOOOOOOOOOOOO              ",
"                OOOOOOOOOOOOOOOOOOOOOOOOOOOOOOOO                ",
"                  OOOOOOOOOOOOOOOOOOOOOOOOOOOO                  ",
"                    OOOOOOOOOOOOOOOOOOOOOOOO                    ",
"                        OOOOOOOOOOOOOOOO                        ",
"                                                                "
};