/* XPM */
static char *eeee6979c678425cebf1cac8c6cfebc2PadZgEVz4ImBtfNL[] = {
/* columns rows colors chars-per-pixel */
"64 64 65 1 ",
"  c #2C2C2C",
". c #343434",
"X c #353434",
"o c gray22",
"O c #483818",
"+ c #543C1C",
"@ c #5C4020",
"# c #5D4020",
"$ c #6C4824",
"% c #6C4825",
"& c #744C28",
"* c gray25",
"= c #424040",
"- c #424140",
"; c #434141",
": c #4C4C4C",
"> c #4D4C4C",
", c #4E4C4C",
"< c #4E4D4C",
"1 c #4E4D4D",
"2 c gray33",
"3 c #565454",
"4 c #565554",
"5 c #565555",
"6 c gray36",
"7 c #5D5C5C",
"8 c #5E5C5C",
"9 c #5E5D5C",
"0 c #5E5D5D",
"q c #646464",
"w c #656464",
"e c #656564",
"r c gray44",
"t c #80502C",
"y c #885830",
"u c #905C34",
"i c #9C6038",
"p c #A0643C",
"a c #A1643C",
"s c #A1653D",
"d c #A86840",
"f c #A96840",
"g c #B47044",
"h c #B47145",
"j c #BC7848",
"k c #C87C4C",
"l c #C87C4D",
"z c #D08050",
"x c #DC8854",
"c c #DC8855",
"v c #E78C58",
"b c #E88C58",
"n c #F0945C",
"m c #FCA85C",
"M c #FC9C60",
"N c #FC9C61",
"B c #FCA470",
"V c #FCB080",
"C c #FCB890",
"Z c #FCBC9C",
"A c #FCC4A4",
"S c #FCCCB0",
"D c #FCD4BC",
"F c #FCD8C4",
"G c #FCE0D0",
/* pixels */
"22ZZZZZZZZky-2ZZZZZZZZZZZZZZZji 2NNNnNbxxccjjj&# 2VCCCCCBCVBzu.*",
"22ZDSAAAACjy-2ZACCCVVVVVVVVVBks-2vVVBnnnxxcczji&-0VCCCCCCBVBzu.*",
"22ZAZCCCCBzy-9ZACVVBBBBBBBBBnji*2hBBbxzkjhhsdii&*7BVBBBBBBBnji.*",
"22ZAVVVVVnjy-9ZAVBBnnnNNNmNNbjs-5sjzhdiiiiiyuy&#:0nBnnnnnnnxj&.*",
"24ZCVBBBBbht-7ZAVBBnnnnNNNNNbks-::221--*******-;50cnvcxxxxxjd&o*",
"24VVBNnNNxd&*7ZZVNNNNnnnnnNnbki*:2errreee006222520zvxzzzzzzji&o;",
"24BVnnnnbzd&-2ZAVNmmNNNnnnnNbji*2hnBZZCCCVBNncjfy0jczzzzzjzhi&.*",
"24BBnbxbxzi&-7ZZVmmNmBBNnnnnbks*enVZZZCZZZAZVBnji0hzzjhjjjjhu&.*",
"22BBvccczji%@6ZABBmNmBBBNnnncjd*eBZZCZZCZASZVNnji2ijhhhjjjhdu%.*",
"22BBczzzzhy$*6CZCmNmNBBNnnnnchi*eZZZCZZZAASZVNnji*&uiiisihdiu%.*",
"22cnzlzlkhu%*2VCBmNNBBBnnnnvchy*eZZCZZZCZAAZVNNjdoo.$&yuiidiy%.*",
"22cvljjjji&%*6VVBBNBBBNnnnvvcji*0ZZZZZCZAAAZVNbji......%&&iu&%.*",
"22zcjhhhsi&@*6BVVBBBnmnnnvvczji*0ZSZZZZZAAZVVNbjio.*;oo...$&&%.*",
"25jzhddii&@.*6cVBBBnnnnnvvcclhd*0BZAZZZACCVVBnzhy;uhdiiu&*..@@o*",
"52hjhiiyi&@.*0cBBBBnvvvccczzhdy*:jBBBBVBBBnnvzhy&*jnvzjhii$..o**",
"22diiiy&&%.**2lnnnbvzklljjjhddy**:jzzzzzjjjjjht&*dnnxzzjjsu$.***",
"22:****o..**:2sjhhsdiiidiididy**:::sdsisssssiy&**znnzjjjhhi%.***",
"77070002:-*:22:*****-***--*****:222:**;****;;***innxjhhhss&@o***",
"AAAACVBNnzhiy0000002::22227706666605222:**dhs***hvxjdisii&&o@dxB",
"SDSSSAAAAVVVBACCVVBcd12CCCCCCCVBNncclzjd**dji***djiiy&y&&%@o&zNC",
"SDSAAAAAAAAAAAAAAZVnh*:jclljjjjjjjjjjjhu**ys&***&&%@@@@@@@ oicAC",
"SDSSAAAAAZZZZZZZZZVnh***::o;o===*********:***@:**o........;%dNSC",
"SSSAAAAAZCCCCCVVCCVnd**:::1-;-=,:2222222252262222:1:::*****&zZSC",
"ZAAAAAAZCVVVVVVVVVVnd*:ydjhddy=,ysddddhddssiisiiiiiiuuy&%**ixAAC",
"CCZZZZCVVVVVVVVVVVVnd;4shhggsu;,usddddddiiiiiiiiiiyiyai&%.:sNAZZ",
"CCCCCCVVVVVVVVVVBBBnd-4hdsauayX,&uuuuuuuuuiuuuuuytt&t&&&@o*zCZCC",
"CCVVVVVVVVVVVVBBBBBvs-2hsiiiutX,o%%%%%%%$$$$$$$$$$$###@@.*1xVZCC",
"CVVBBBBBBBBBBBnnnnnvs*2hsiuuutX=*o..............XoXXXo.o**1NVBCB",
"Bnvcccccczzzzzzzzcczd*2hguuuuuX=VSZZZZVVnviX&sssiiyiuy$o**2nBnnn",
"dddddidddiiidddsdsddy*2hsuuuayX,FABBBBBBnxsoisssssiiiu&%.*1hjfdd",
"****-***;*******-****:2hsuuuuyX3DANnnnvnnxs.&yyyyy&t&&&$.*1*..o.",
"22222522555250000022222hfuuuauX3DABBBnnnvvs..o..XXoo.....<1*****",
"22lBVCVVVVVVVVVVVVVVa33hgiuuay.2DABBBBNnncd.*222222222222221@***",
"2zVCASDFGGGGGGGGGFDZj,3jgiiuu&.2DABBnNNNncd.2nZVVVVVBBBnxxxhy%**",
"2BCASDFGGGGGFDDDDSACl=3jgsiiuu.0DABBNmmmncd.2ZZZCVVVBBnnnnvks%**",
"2VASDFFDDDDDSSAAAAZVl=3jhasssy.0DACBNmNNMcd.2VCVVBnnnxxxxxzjs%o*",
"5CASDDDDSAAAAAAZZCCBk*3jhaaadyo0DAVBnNNmncd.2BVBnccxzzzzzzzjs&o*",
"5CAASSAAAAZZZZCCCCVBj*2jhfffduX0DAVBmNmNncd.2BBnclzzzzzzzzzjd&.*",
"5CASAAAZZCCVVVVVCZVnj*2jksfhhu.0DABBmNmBncd.2BBczzzzzzzxzzzzhu.*",
"5VSSAACVVVVVVVVCZZCnj*2jjghhji.0DABBBNBBncd.5BBvzzccxxxxccczh&.*",
"4BSSAZCVVVVVVVCCZZVnj=2llhhjluX0DABBBBBBnvh.2cBvccccccccccccju.@",
"4CSAZCVVVVVZVVCCCCVnj=4zljjlldX0DAVBBBBBBnj.2cNvcccccvvvvvvcjs.*",
"4BSCVVVVVVVBVVVVVVVnh*4kljjljaX7DABBBBBBVBj.2cVnvcccvvvvvvvcji.*",
"4BVVBBBBBBBBBBBVVBncd*2ddddffy=7DABBBBBBBBj.2cvnvccccccccvncjs.*",
"2jnnnnnnnnnnnnnnBnclf-21;oXX.**0SZBBVVVVBnj;:hzzlllllllllljjhuo*",
"2*dhjhhhghgghhhhhhfdy-27eeww6660AZBVVCCVBnh;@ypsiiiiiiiissssu&.*",
"::****@****===******==27NAAANy60SAVVCCCVBcd;****...............*",
"666qqqqq6622qqrrre672:50VSAACh20DAZZZCVVnzu::2622222222222222222",
"CVVVVVVVli5sVDZZZZZNja;2AACVbd10DDAAZVBnzh&*10NVZZZZZZZZZZZZZZZZ",
"VVZASSAVnk2hDACCCCCNlu#0ZCBNvu*5DDAZVBnzhy;:9cNVZZZZZCBCCBCBBCCB",
"cnvCVVVBnj1kZZVBBBBMht;0BVbbld;5DSVVnvzhy*:6zvBVBBBBBNnMbMnNbNmn",
"llcnnnncks1xCCBnnnblf&;5NVncld*5DABncjfy*16zxmBNnvvccclllzllcvll",
"hjjlzzllhi1nVBnxcclhu%*:jccljyo1Vnxzhiy**2jzbnncczlljjjjjjjjjljj",
"uyiiiiiiuy4BVnkjjjaut***=agjfto1shdii&;11dhffsffdsssiuuuuuuyyuuy",
"&%%&&&&&&;2nnkhdfuu&;;***.&yu%o;********1y&&&&&&&&&&%%%%%%%%%%%%",
";o;*****;;2jjduuy&%=2jMld*o&&;1522222221*;;ooXXX....o...XX....o*",
"--272992492221--****2VVncd;;*2cBZZVBnxzzjii&&254222222254111****",
"-2bCCCZCCZZZZCCCCZv:6CCBvli;:nVZDDDAAAZCCCCCCCCCCCCCCCCZCCVVCnu*",
"*7CAAAACCCCCCBBCMch*2CVnclyo*VAAZZZCCCCCBCCBCCBVVVVVVVBVVVVVBcyo",
"*2CCVVBBBnnnnnnnli&-2VVnlji.*ZCCBBBnnnnnnnnnnnnnnnnnnnnbnnnnlhyo",
"*2BVBnnnvvcvczzzhu+-5VVclhyo*CBnbbbcxxxxccccxxxcxxxxxxxxvllkksto",
"*2xnbxzzlzlljjhhst%o2VBlhiy.*lvnczzzzzzzzzzzzkjjjjjjjkjjjjjhsy&o",
"-2jkhhdssssssuyyu&+-2ccdiy&.@hbczjjhfdsdssffssiiiiiiiiiiuauuu&+o",
"*21&$%%%%%###@@$#oo-2eu%%@*.#&iiyy&&%%%%%%%@@@@@@@###########+OX"
};
