/* XPM */
static char *_4069_118cd97b02af06cdee7d2dc1eac1ee89985c78a04b2ef2cdd2691039a5e817dd[] = {
/* columns rows colors chars-per-pixel */
"64 64 23 1 ",
"  c #010101",
". c #470956",
"X c #5E0C72",
"o c #7F079A",
"O c #8B08AA",
"+ c #9C0CBF",
"@ c #B026D1",
"# c #C362DB",
"$ c #DCC4AC",
"% c #E8D2BC",
"& c #D0A5D8",
"* c #D4A7DD",
"= c #EAB9F3",
"- c #EEBBF8",
"; c #E3D3C4",
": c #E9D9C9",
"> c #E9E0D7",
", c #F1E2D4",
"< c #F8E9DA",
"1 c #F1C5FB",
"2 c #F3D8FB",
"3 c #F9F0E7",
"4 c None",
/* pixels */
"4444444444444444444444444444444444444444444444444444444444444444",
"4444444444444444444444444444444444444444444444444444444444444444",
"4444444444444444444444444444444444444444444444444444444444444444",
"4444444444444444444444444444444444444444444444444444444444444444",
"4444444444444444444444444444444444444444444444444444444444444444",
"4444444444444444444444444444444444444444444444444444444444444444",
"4444444444444444444444444444444444444444444444444444444444444444",
"4444444444444444444444444444444444444444444444444444444444444444",
"44444444444444444444444444444444444   44444444444444444444444444",
"4444444444444444444444444444444444 #++ 4444444444444444444444444",
"444444444444444444444444444444444 #+++o 444444444444444444444444",
"444444444444444444444444444444444 #+++++ 44444444444444444444444",
"444444444444444444444444444444444 #+++++o 4444444444444444444444",
"44444444444444444444444444444444 #+++--++o 444444444444444444444",
"44444444444444444444444444444444 #@------++ 44444444444444444444",
"4444444444444444444444444444444 #+@------++o 4444444444444444444",
"44444444444444444444444444444  #+@@-------+Oo 444444444444444444",
"4444444444444444444444444444 ##@@@+-------++Oo 44444444444444444",
"44444444444444444444444444  #+@@@++-------++OOo 4444444444444444",
"4444444444444444444444444 ##+@@@@++------++++OOo 444444444444444",
"44444444444444444444444  #++@@@@++++----++++++OOo 44444444444444",
"4444444444444444444444 22--@@@@+++++++++++++++OOOo 4444444444444",
"44444444444444444444  2---1@@@+++++++++++++++++OOo 4444444444444",
"444444444444444444  22--111@@+++++++++OOO++++++OOo 4444444444444",
"44444444444444444 #1111111@@+++++++OOOOOOOOO+++OOOo 444444444444",
"4444444444444444 #@@11111@++++++++++++++OOOOO+++OOo 444444444444",
"444444444444444 #++@@@@@@++++++++++++++++++-=--+OOo 444444444444",
"444444444444444 #+++++++++++++++++++++++++------OOo 444444444444",
"444444444444444 #++++++++++++++++++++++++------=OOo 444444444444",
"444444444444444 #++++++++++-------+++++++----=OOOOo 444444444444",
"444444444444444 #+++++++++--------++++++++--OOOOOOo 444444444444",
"444444444444444 #+++++        -**&&OOOOOOO     OOo 4444444444444",
"444444444444444 #+++  X.X.XX.X            .XX.X    4444444444444",
"444444444444444 #+  .X.X.XX.XX. :$$::;; .XX.ooooo 44444444444444",
"4444444444444444  XX.X.X.X.XX.X :$:::;; oOOOO    444444444444444",
"4444444444444444  +.X.X.X.XX.X+ >$$$::;      4444444444444444444",
"44444444444444444  +++X.X.+++++ 3<:%<:;, 44444444444444444444444",
"4444444444444444444  #+++++     3<<<<<<, 44444444444444444444444",
"444444444444444444444      4444 3<<<<<<, 44444444444444444444444",
"44444444444444444444444444444444 3<<<%%%, 4444444444444444444444",
"44444444444444444444444444444444 3<<<<<%% 4444444444444444444444",
"444444444444444444444444444444444 3<<<<<%, 444444444444444444444",
"444444444444444444444444444444444 3<<<<<%% 444444444444444444444",
"4444444444444444444444444444444444 3<<<<,% 444444444444444444444",
"444444444444444444444444444444444 3<<<<<,% 444444444444444444444",
"444444444444444444444444444444444 3<<<<<,% 444444444444444444444",
"44444444444444444444444444444444 3<<<<<<,% 444444444444444444444",
"44444444444444444444444444444444 3<<<<<<,% 444444444444444444444",
"4444444444444444444444444444444 %<<<<<<<,% 444444444444444444444",
"444444444444444444444444444444 3%<<<<<<<,, 444444444444444444444",
"44444444444444444444444444444 3%%<<<<<<<,, 444444444444444444444",
"44444444444444444444444444444 3%<<<<<<<<%, 444444444444444444444",
"4444444444444444444444444444 3%%<<<<<<<<%< 444444444444444444444",
"444444444444444444444444444 3<%<<<<<<<<<, 4444444444444444444444",
"4444444444444444444444444  3<%%<<<<<<<<<, 4444444444444444444444",
"444444444444444444444444 33<%%<<<<<<<<<,, 4444444444444444444444",
"44444444444444444444444 3<<%%<<<<<<<<<<, 44444444444444444444444",
"4444444444444444444444 3<<<<<<<<<<<<<<,, 44444444444444444444444",
"4444444444444444444444 3<<<<<<<<<<<<<,,, 44444444444444444444444",
"444444444444444444444 3<<<<<<<<<<<<<<,,, 44444444444444444444444",
"444444444444444444444 3<<<<<<<<<<<<<,,, 444444444444444444444444",
"444444444444444444444 3<<<<<<<<<<<,,,,, 444444444444444444444444",
"444444444444444444444 3<<<<<<<<<<,,,,,, 444444444444444444444444",
"4444444444444444444444                  444444444444444444444444"
};
