/* XPM */
static char *_03325b1a7144404e0e5639f2667db22D173qr47sEJvVcXZ[] = {
/* columns rows colors chars-per-pixel */
"64 64 13 1 ",
"  c None",
". c #202020",
"X c #800000",
"o c #E00000",
"O c #A06040",
"+ c #202080",
"@ c #606080",
"# c #2040C0",
"$ c #6060E0",
"% c #E0A080",
"& c #A0A0C0",
"* c #C0C0E0",
"= c gray88",
/* pixels */
"                                                                ",
"                                                                ",
"                                                                ",
"                                                                ",
"                                                                ",
"                                                                ",
"                                                                ",
"                                                                ",
"                                                                ",
"                                                                ",
"                 #######                                        ",
"            ################                                    ",
"            ################                                    ",
"         +++++#######+++#######      +                          ",
"            +++++++##++%++#$######  ++                          ",
"            +++++++##++%++#$######  ++                          ",
"                +++++OO%%%+#$$$#####++                          ",
"                 ++#+OO%%%%#$$$$$####+                          ",
"                ####+OOO###$$$*$$$####                          ",
"                ####+OOO###$$$*$$$####                          ",
"            ##############$$###$$$$$##                          ",
"         ##########$$$$$$$$+#####$$$####                        ",
"         ##########$$$$$$$$+#####$$$####                        ",
"       #############$==$$$+@**=&&#$$$###                        ",
"      #++++++++++####$$#$$+&=====&##$#++                        ",
"     +++++++++++++++######+&=====&##$$++                        ",
"     +++++++++++++++######+&=====&##$$++                        ",
"             +++++++#######&==&..&&&++&&                        ",
"                +++++######$&&&..@==&&@@                        ",
"                +++++######$&&&..@==&&@@                        ",
"              ###++++++#OO%%&&&..&==O&...                       ",
"             ######++++O%%=%%%%***%%%...@                       ",
"            ####+++++++O%%%O%%%%%%%%%O                          ",
"            ####+++++++O%%%O%%%%%%%%%O                          ",
"           ##+++++++++++OOOOOO%%%%OOO                           ",
"           #+      ++++++++OOOOOOO  OOOO                        ",
"           #+      ++++++++OOOOOOO  O%%O                        ",
"                   ++OO%OO++++++++OOO%%%O                       ",
"                === O&&=%%O+##O%%=OO%%%%%OO                     ",
"                === O&&=%%O+##O%%=OO%O%%%OO                     ",
"              @@===&&===+++#OO%=====O OO====                    ",
"              @@&======++++#OO%%%=%%O   =====                   ",
"              @@&=======+++#OO%%%%%%  &&===**==                 ",
"              @@&=======+++#OO%%%%%%  &&===**==                 ",
"                @&&====&++++##O%%%##  &&***@*==                 ",
"                @&&&&&&@  ++++######    &@@@&==                 ",
"                @&&&&&&@  ++++######    &@@@&==                 ",
"                 @@@@@@   ++##+###### =====&&==                 ",
"                           +++#  +++##&&&&&                     ",
"                           +###   ++##                          ",
"                           +###   ++##                          ",
"                        @@&+## @@@++#&                          ",
"                       @&&&===&@@&==&@                          ",
"                       @&&&===&@@&==&@                          ",
"                       @@@@&&&@@@@@@&&@@                        ",
"                       .XXooXX.@@@&&&@XXooo                     ",
"                     .XX&&=====..XXXXXooo**==oo                 ",
"                     .XX&&=====..XXXXXooo**==oo                 ",
"                     .&&ooooooX&&XXXXXXX&&&*ooo=oo              ",
"                     .XXXXoo==oXX.XXXX@@@&&Xooooooo             ",
"                     .XXXXoo==oXX.XXXX@@@&&Xooooooo             ",
"                     .XXXXXooooXX.XXXX@@@@@XXXXXoooo            ",
"                       .............................            ",
"                                                                "
};