/* XPM */
static char *_51dffc789f041d4eda9044e3def45e96K9ifIWWUYNrP09T[] = {
/* columns rows colors chars-per-pixel */
"64 64 13 1 ",
"  c None",
". c #202020",
"X c #800000",
"o c #E00000",
"O c #A06040",
"+ c #202080",
"@ c #606080",
"# c #2040C0",
"$ c #6060E0",
"% c #E0A080",
"& c #A0A0C0",
"* c #C0C0E0",
"= c gray88",
/* pixels */
"                                                                ",
"                                                                ",
"                                                                ",
"                                                                ",
"                                                                ",
"                                                                ",
"                                                                ",
"                                                                ",
"                                                                ",
"                                                                ",
"                                                                ",
"                   #######                                      ",
"              ################                                  ",
"           +++++#######+++#######     +                         ",
"           +++++#######+++#######     +                         ",
"              ++++++###++%+##$#####  ++                         ",
"                  +++++OO%%++#$$$####++                         ",
"                   +##+OO%%%%#$$$$####+                         ",
"                   +##+OO%%%%#$$$$####+                         ",
"                  ####+OOO###$$**$$####                         ",
"              #############$$$###$$$$##                         ",
"           #########$$$$$$$$$+&&&&$$$####                       ",
"           #########$$$$$$$$$+&&&&$$$####                       ",
"          ############$==$$++@*===#$$$###                       ",
"        ##+++++++++####$$#$++&&&&=&##$#++                       ",
"        ++++++++++++++#####++&.&&=&##$$++                       ",
"        ++++++++++++++#####++&.&&=&##$$++                       ",
"               +++++++#######&.@@==&&++&&                       ",
"                  +&==+######$.&&====@.@@                       ",
"                  +&==+######$.&&====@.@@                       ",
"                ###&&&===#O%%%&======O&...                      ",
"               ###&====**O%==%%%%**%%%...@                      ",
"              ##&&====&===%%%%%%%%%%%%O                         ",
"              ##&&====&===%%%%%%%%%%%%O                         ",
"            ###&====&&===&OOOOO%%%%OOO                          ",
"            ##+&======*&&=+++OOOOOO                             ",
"               @======&&&O++++++++                              ",
"               @======&&&O++++++++                              ",
"               @======&OO%O++#O%%=OOO                           ",
"                @@====@%%O+##O%====OO%O                         ",
"                  @@@@OOO++##O%%%=%OOO%OO                       ",
"                  @@@@OOO++##O%%%=%OOO%OO                       ",
"                         ++##O%%%%%OO%O                         ",
"                         ++++#O%%%#%%O                          ",
"                          ++++####@&&==                         ",
"                          ++++####@&&==                         ",
"                          +++#+##+@@@&                          ",
"                           ++# ++##                             ",
"                           ++# ++##                             ",
"                           ++#   +#                             ",
"                           ++#   +###                           ",
"                         @&++# @@@+##&                          ",
"                         @&++# @@@+##&                          ",
"                       @@&&===&@@&=&&@                          ",
"                       @@@@&&&@@@@@&&&@                         ",
"                       ..XoooX.@@@&&&@Xooo                      ",
"                       ..XoooX.@@@&&&@Xooo                      ",
"                      .XX&=====..XXXXXooo*===o                  ",
"                      .&&oooooX&&XXXXXX&&&**oo==o               ",
"                      .&&oooooX&&XXXXXX&&&**oo==o               ",
"                      .XXXooo=oXX.XXXX@@@&XXoooooo              ",
"                      .XXXXooooXX.XXXX@@@@XXXXXXoooo            ",
"                       .............................            ",
"                                                                "
};
