/* XPM */
static char *_e402230c4ea4077e18034b762fa9c8b2bTnXP6GSiQBPqw5[] = {
/* columns rows colors chars-per-pixel */
"64 64 13 1 ",
"  c None",
". c #202020",
"X c #800000",
"o c #E00000",
"O c #A06040",
"+ c #202080",
"@ c #606080",
"# c #2040C0",
"$ c #6060E0",
"% c #E0A080",
"& c #A0A0C0",
"* c #C0C0E0",
"= c gray88",
/* pixels */
"                                                                ",
"                                                                ",
"                                                                ",
"                                                                ",
"                                                                ",
"                                                                ",
"                                                                ",
"                                                                ",
"                                                                ",
"                                                                ",
"                   #######                                      ",
"             #################                                  ",
"          ++++++#######+++#######     ++                        ",
"          ++++++#######+++#######     ++                        ",
"             +++++++###+%%+#$$###### +++                        ",
"                 ++++++O%%%+##$$$####+++                        ",
"                 ++++++O%%%+##$$$####+++                        ",
"                   +#++O%%%%##$$$$####++                        ",
"                 ####++OOO##$$$**$$$####                        ",
"             ##############$$$###$$$$###                        ",
"          ##########$$$$$$$$++&&&&$$$####                       ",
"         ############$$=$$$+@@*===##$$###                       ",
"        #############$$=$$$+@@*===##$$###                       ",
"       ##++++++++++####$##$+&&&&&=&&#$##+                       ",
"       +++++++===++++######+&&.&&=&&#$$$+                       ",
"              &&===++#######&&.@@===&+++&                       ",
"              &&===++#######&&.@@===&+++&                       ",
"              &&*==+===#####$$.&&====@..@                       ",
"                &====**+##O%%%&======O&&...                     ",
"                &====**+##O%%%&======O&&...                     ",
"              &&====&+++OO%=%%%%%***%%...@@                     ",
"             &=====&@+++OO%%%%%%%%%%%%OO                        ",
"            #&======*&&+++OOOOO%%%%%OO                          ",
"            #&======*&&+++OOOOO%%%%%OO                          ",
"            #@=======&&&++++OOOOOOOO                            ",
"             @**===*&@@&OO++++++++                              ",
"             @**===*&@@&OO++++++++                              ",
"              @@****@&&%%%O+##O%%=OOOO                          ",
"                @@@@ OOOOO+#OO%=====O%%O                        ",
"                @@@@ OOOOO+#OO%=====O%%O                        ",
"                       ++++#OO%%%=%%O%%%O                       ",
"                        +++#OO%%%%%%O%OO                        ",
"                        ++++##O%%%##%O                          ",
"                        ++++##O%%%##%O                          ",
"                          ++++####@@&===                        ",
"                          ++##+##+@@@&                          ",
"                          ++##+##+@@@&                          ",
"                           +## ++###                            ",
"                           +##   +##                            ",
"                           +##   +###                           ",
"                           +##   +###                           ",
"                        @@&+## @@@++#&                          ",
"                       @&&&===&@@&==&@                          ",
"                       @&&&===&@@&==&@                          ",
"                       @@@@&&&@@@@@@&&@@                        ",
"                       .XXooXX.@@@&&&@XXooo                     ",
"                     .XX&&=====..XXXXXooo**==oo                 ",
"                     .XX&&=====..XXXXXooo**==oo                 ",
"                     .&&ooooooX&&XXXXXXX&&&*ooo=oo              ",
"                     .XXXXoo==oXX.XXXX@@@&&Xooooooo             ",
"                     .XXXXoo==oXX.XXXX@@@&&Xooooooo             ",
"                     ..XXXXooooXX.XXXX@@@@@XXXXXoooo            ",
"                       .............................            ",
"                                                                ",
};