/* XPM */
static char *_9f0936f0bae45d3fc0f73f9045428c8aOvoK9Xf4VQCK689[] = {
/* columns rows colors chars-per-pixel */
"64 64 13 1 ",
"  c None",
". c #202020",
"X c #800000",
"o c #E00000",
"O c #A06040",
"+ c #202080",
"@ c #606080",
"# c #2040C0",
"$ c #6060E0",
"% c #E0A080",
"& c #A0A0C0",
"* c #C0C0E0",
"= c gray88",
/* pixels */
"                                                                ",
"                                                                ",
"                                                                ",
"                                                                ",
"                                                                ",
"                                                                ",
"                                                                ",
"                                                                ",
"                                                                ",
"                                                                ",
"                                                                ",
"                   #######                                      ",
"              ################                                  ",
"           +++++#######+++#######     +                         ",
"           +++++#######+++#######     +                         ",
"              +++++++##++%+##$#####  ++                         ",
"                  +++++OO%%++#$$$####++                         ",
"                   ++#+OO%%%%#$$$$####+                         ",
"                   ++#+OO%%%%#$$$$####+                         ",
"                  ####+OOO###$$**$$####                         ",
"              #############$$$###$$$$##                         ",
"           ##########$$$$$$$$+&&&&$$$####                       ",
"           ##########$$$$$$$$+&&&&$$$####                       ",
"          ############$==$$++@*===#$$$###                       ",
"        ##+++++++++####$$#$++&&&&=&##$#++                       ",
"        ##+++++++++####$$#$++&&&&=&##$#++                       ",
"        ++++++++++++++#####++&.&&=&##$$++                       ",
"               +++++++#######&.@@==&&++&&                       ",
"                  +++++######$.&&====@.@@                       ",
"                  +++++######$.&&====@.@@                       ",
"                ###++++++#O%%%&======O&...                      ",
"               ######++++O%==%%%%**%%%...@                      ",
"              ####+++++++O%%%%%%%%%%%%O                         ",
"              ####+++++++O%%%%%%%%%%%%O                         ",
"            ###+++++++++++OOOOO%%%%OOO                          ",
"            ##+      ++++++++OOOOOO                             ",
"                   +++++++++++++++                              ",
"                   +++++++++++++++                              ",
"                   OOOO%%%O++#O%%=OOO                           ",
"                OOO%%%%OOO+##O%====OO%O                         ",
"                OO%OOOO++++##O%%%=%OOO%OO                       ",
"                OO%OOOO++++##O%%%=%OOO%OO                       ",
"                OOO%%%O@@++##O%%%%%OO%O                         ",
"                @@@OO%O&&++++#O%%%#%%O                          ",
"               @**@@@O&==@++++####@&&==                         ",
"               @**@@@O&==@++++####@&&==                         ",
"               @&&***==@@@+++#+##+@@@&                          ",
"                @@@&&*@    ++# ++##                             ",
"                   @@@     ++#   +#                             ",
"                   @@@     ++#   +#                             ",
"                           ++#   +###                           ",
"                         @&++# @@@+##&                          ",
"                         @&++# @@@+##&                          ",
"                       @@&&===&@@&=&&@Xoo&&&&ooo                ",
"                       @@@@&&&@@@@@&&&ooo====o==oo              ",
"                       ..XoooX.@@@&&&Xo=====oooooooo            ",
"                       ..XoooX.@@@&&&Xo=====oooooooo            ",
"                      .XX&=====..XXXXX@&&&XXXXXXoX..            ",
"                      .&&oooooX&&XXXXX@@@@XXX....               ",
"                      .&&oooooX&&XXXXX@@@@XXX....               ",
"                      .XXXooo=oXX.XXXX@@@....                   ",
"                      .XXXXooooXX.XXX....                       ",
"                       ...............                          ",
"                                                                "
};
