/* XPM */
static char *a2e785098a4d4ef7965e39c85c51be7aaq1EoSU8VY59hAHw[] = {
/* columns rows colors chars-per-pixel */
"64 64 13 1 ",
"  c None",
". c #202020",
"X c #800000",
"o c #E00000",
"O c #A06040",
"+ c #202080",
"@ c #606080",
"# c #2040C0",
"$ c #6060E0",
"% c #E0A080",
"& c #A0A0C0",
"* c #C0C0E0",
"= c gray88",
/* pixels */
"                                                                ",
"                                                                ",
"                                                                ",
"                                                                ",
"                                                                ",
"                                                                ",
"                                                                ",
"                                                                ",
"                                                                ",
"                #######                                         ",
"          #################                                     ",
"          #################                                     ",
"        +++++#######+++#######      +                           ",
"          ++++++++##++%++#$###### +++                           ",
"          ++++++++##++%++#$###### +++                           ",
"               +++++OO%%%+#$$$####+++                           ",
"                ++#+OO%%%%#$$$$$####+                           ",
"               ####+OOO###$$**$$$####                           ",
"               ####+OOO###$$**$$$####                           ",
"          ###############$$$$$$$$$###                           ",
"        ##########$$$$$$$$+#$$$$$$####                          ",
"        ##########$$$$$$$$+#$$$$$$####                          ",
"      #############$==$$$+&=##$$$$$$##                          ",
"      ++++++++++####$$#$$+&===###$$$#+                          ",
"      +++++++++++++######+&=====##$$$+                          ",
"      +++++++++++++######+&=====##$$$+                          ",
"            +++++++#######&=====&+###&                          ",
"               +++++######&&====&@+++@                          ",
"               +++++######&&====&@+++@                          ",
"             ###++++++#OO%%&====&.OO&...                        ",
"            ######++++O%%=%%%%***%%%..@@                        ",
"          #####+++++++O%%OO%%%%%%%%%O                           ",
"          #####+++++++O%%OO%%%%%%%%%O                           ",
"         ###+++++++++++OOOOO%%%%%OOO                            ",
"         #++      ++++++++OOOOOOO           @&&===              ",
"         #++      ++++++++OOOOOOO           @&&===              ",
"                ++++++++++++++++++%%%%%%O==@&***=======         ",
"                      OOO++&==OO%%%%%%%%=@@&*==&&&&&&&=         ",
"                      OOO++&==OO%%%%%%%%=@@&*==&&&&&&&=         ",
"                    OO%%%++&====@@%%OOOO @@&*==&===@            ",
"                    OO%%%++@====@=&&O      @&&&&===             ",
"                   O%%%OO++=========@#      @&&&&&@             ",
"                   O%%%OO++=========@#      @&&&&&@             ",
"                   O%%%%%%=&========@###$    @@@@@              ",
"                    OOOOOO=&======&&@+###$$                     ",
"                    OOOOOO=&======&&@+###$$                     ",
"                          @&=====&&&@ ++###                     ",
"                           @&&&&&&@@ +###                       ",
"                            @@@@@@  @&##@                       ",
"                            @@@@@@  @&##@                       ",
"                         @&+####+@@@@&===@@                     ",
"                       @@&&===&&@X@@&@@@&@@                     ",
"                       @@&&===&&@X@@&@@@&@@                     ",
"                       @@@@&&&@@@XXX@&&&&@@                     ",
"                       ..XooXX..@XXXXX@@@oo                     ",
"                      .XX&======.XXXXXooo**==oo                 ",
"                      .XX&======.XXXXXooo**==oo                 ",
"                      .&&oooooXX&.XXXXXX&&&*ooo=oo              ",
"                      .XXXoo==ooX...XX@@@&&Xooooooo             ",
"                      .XXXoo==ooX...XX@@@&&Xooooooo             ",
"                      .XXXXoooooX.....@@@@@XXXXXoooo            ",
"                       ...........  ................            ",
"                                                                ",
"                                                                "
};
