/* XPM */
static char *f4e0f66458fd4d58eef43313920a613b25ixCe761KnPO3wH[] = {
/* columns rows colors chars-per-pixel */
"64 64 13 1 ",
"  c None",
". c #202020",
"X c #800000",
"o c #E00000",
"O c #A06040",
"+ c #202080",
"@ c #606080",
"# c #2040C0",
"$ c #6060E0",
"% c #E0A080",
"& c #A0A0C0",
"* c #C0C0E0",
"= c gray88",
/* pixels */
"                                                                ",
"                                                                ",
"                                                                ",
"                                                                ",
"                                                                ",
"                                                                ",
"                                                                ",
"                                                                ",
"                                                                ",
"                                                                ",
"                                                                ",
"                   #######                                      ",
"              ################                                  ",
"           +++++#######+++#######     +                         ",
"           +++++#######+++#######     +                         ",
"              +++++++##++%+##$#####  ++                         ",
"                  +++++OO%%++#$$$####++                         ",
"                   ++#+OO%%%%#$$$$####+                         ",
"                   ++#+OO%%%%#$$$$####+                         ",
"                  ####+OOO###$$**$$####                         ",
"              #############$$$###$$$$##                         ",
"           ##########$$$$$$$$+&&&&$$$###                        ",
"           ##########$$$$$$$$+&&&&$$$####                       ",
"          ############$==$$++@*===#$$$###                       ",
"        ##+++++++++####$$#$++&&&&=&##$#++                       ",
"       ###+++++++++####$$#$++&&&&=&##$#++                       ",
"       +++++++++++++++#####++&.&&=&##$$++                       ",
"               +++++++#######&.@@==&&++&                        ",
"                  +++++######$.&&====@.@                        ",
"                  +++++######$.&&====@.@                        ",
"                ###++++++#O%%%&======O&...                      ",
"               ######++++O%==%%%%**%%%...@                      ",
"              ####+++++++O%%%%%%%%%%%%O                         ",
"              ####+++++++O%%%%%%%%%%%%O                         ",
"            ###+++++++++++OOOOO%%%%OOO                          ",
"            ##+      ++++++++OOOOOO                             ",
"                   +++++++++++++++                              ",
"                   +++++++++++++++                              ",
"                   OOOO%%%O++#O%%=OOOO                          ",
"                OOO%%%%OOO+##O%====O%%O                         ",
"                O%%OOOO++++##O%%%=%O%%%O                        ",
"                O%%%%%O++++##O%%%=%O%%%O                        ",
"                OO%%%%O@@++##O%%%%%O%%O                         ",
"                @@@OO%O&&++++#O%%%#%%O                          ",
"               @**@@@O&==@++++####@&&==                         ",
"               @**@@@O&==@++++####@&&==                         ",
"               @&&***==@@@+++#+##+@@@&                          ",
"                @@@&&*@    ++# ++##                             ",
"                   @@@     ++#   +#                             ",
"                   @@@     ++#   +#                             ",
"                           ++#   +###                           ",
"                         @&++# @@@+##&                          ",
"                         @&++# @@@+##&                          ",
"                       @@&&===&@@&=&&@                          ",
"                       @@@@&&&@@@@@&&&@                         ",
"                       ..XoooX.@@@&&&@Xooo                      ",
"                       ..XoooX.@@@&&&@Xooo                      ",
"                      .XX&=====..XXXXXooo*===o                  ",
"                      .&&oooooX&&XXXXXX&&&*ooo==o               ",
"                      .&&oooooX&&XXXXXX&&&*ooo==o               ",
"                      .XXXooo=oXX.XXXX@@@&Xooooooo              ",
"                      .XXXXooooXX.XXXX@@@@XXXXXXoooo            ",
"                       .............................            ",
"                                                                "
};